<?xml version="1.0" encoding="UTF-8" standalone="no"?>
<svg width="423.333mm" height="423.333mm"
 viewBox="0 0 1200 1200"
 xmlns="http://www.w3.org/2000/svg" xmlns:xlink="http://www.w3.org/1999/xlink"  version="1.2" baseProfile="tiny">
<title>Qt SVG Document</title>
<desc>Generated with Qt</desc>
<defs>
</defs>
<g fill="none" stroke="black" stroke-width="1" fill-rule="evenodd" stroke-linecap="square" stroke-linejoin="bevel" >

<g fill="#ffffff" fill-opacity="0" stroke="none" transform="matrix(1,0,0,1,0,0)"
font-family=".SF NS Text" font-size="13" font-weight="400" font-style="normal" 
>
<rect x="0" y="0" width="1200" height="1200"/>
</g>

<g fill="none" stroke="#FFFFFF" stroke-opacity="1" stroke-width="1" stroke-linecap="round" stroke-linejoin="round" transform="matrix(1,0,0,1,0,0)"
font-family=".SF NS Text" font-size="13" font-weight="400" font-style="normal" 
>
<polyline fill="none" vector-effect="non-scaling-stroke" points="52,512 50,512 48,512 46,512 44,512 42,513 40,513 38,513 36,514 34,515 32,515 30,516 29,517 27,518 25,519 24,521 22,522 21,523 19,524 18,526 16,527 15,529 14,531 13,532 12,534 11,536 10,538 9,540 9,541 8,543 8,545 7,547 7,549 7,551 " />
<polyline fill="none" vector-effect="non-scaling-stroke" points="7,649 7,651 8,653 8,655 8,657 9,659 10,661 10,663 11,665 12,666 13,668 14,670 16,671 17,673 18,675 20,676 21,677 23,679 24,680 26,681 27,682 29,683 31,684 33,685 35,686 37,686 38,687 40,687 42,688 44,688 46,688 48,688 50,688 52,688 " />
<polyline fill="none" vector-effect="non-scaling-stroke" points="171,512 173,512 175,512 177,512 179,512 181,511 183,511 185,511 187,511 189,510 191,510 193,509 195,509 196,508 198,508 200,507 202,506 204,506 206,505 208,504 210,503 211,502 213,501 215,500 217,499 218,498 220,497 222,496 223,495 225,494 226,493 228,491 230,490 231,489 232,487 234,486 235,485 237,483 238,482 239,480 241,479 242,477 243,475 244,474 245,472 246,470 248,469 249,467 250,465 250,464 251,462 252,460 253,458 254,456 255,454 255,453 256,451 257,449 257,447 258,445 258,443 259,441 259,439 259,437 260,435 260,433 260,431 260,429 260,427 260,425 261,423 261,421 260,419 260,417 260,415 260,413 260,411 260,409 259,407 259,405 259,403 258,401 258,399 257,397 256,396 256,394 255,392 255,390 254,388 253,386 252,384 251,383 250,381 249,379 248,377 247,376 246,374 245,372 244,371 243,369 242,367 241,366 239,364 238,363 237,361 235,360 234,359 " />
<polyline fill="none" vector-effect="non-scaling-stroke" points="7,551 7,553 7,555 7,557 6,559 6,561 6,563 6,565 6,567 6,569 6,571 6,573 6,575 5,577 5,579 5,581 5,583 5,585 5,587 5,589 5,591 5,593 5,595 5,597 5,599 5,601 5,603 5,605 5,607 5,609 5,611 5,613 5,615 5,617 5,619 5,621 5,623 6,625 6,627 6,629 6,631 6,633 6,635 6,637 6,639 6,641 7,643 7,645 7,646 7,648 7,649 " />
<polyline fill="none" vector-effect="non-scaling-stroke" points="52,512 171,512 " />
<polyline fill="none" vector-effect="non-scaling-stroke" points="52,688 171,688 " />
<polyline fill="none" vector-effect="non-scaling-stroke" points="150,926 149,927 147,928 146,930 145,931 143,933 142,935 141,936 140,938 139,940 139,942 138,944 137,946 137,947 137,949 136,951 136,953 136,955 136,957 136,959 136,961 136,963 137,965 137,967 138,969 138,971 139,973 140,975 141,977 142,978 143,980 144,982 145,983 146,984 " />
<polyline fill="none" vector-effect="non-scaling-stroke" points="216,1054 217,1055 219,1057 220,1058 222,1059 224,1060 226,1061 228,1061 230,1062 231,1063 233,1063 235,1063 237,1064 239,1064 241,1064 243,1064 245,1064 247,1064 249,1064 251,1063 253,1063 255,1062 257,1062 259,1061 261,1060 262,1059 264,1058 266,1057 268,1056 269,1055 271,1054 272,1052 274,1051 274,1050 " />
<polyline fill="none" vector-effect="non-scaling-stroke" points="234,841 236,840 237,838 238,837 240,835 241,834 242,832 243,831 245,829 246,827 247,826 248,824 249,822 250,820 251,819 252,817 252,815 253,813 254,811 255,810 255,808 256,806 257,804 257,802 258,800 258,798 259,796 259,794 259,792 260,790 260,788 260,786 260,784 260,782 260,780 261,778 261,776 260,774 260,772 260,770 260,768 260,766 260,764 259,762 259,760 258,758 258,756 257,755 257,753 256,751 256,749 255,747 254,745 254,743 253,741 252,740 251,738 250,736 249,734 248,732 247,731 246,729 245,727 244,726 243,724 241,723 240,721 239,719 238,718 236,716 235,715 233,714 232,712 231,711 229,710 228,708 226,707 224,706 223,705 221,703 219,702 218,701 216,700 214,699 213,698 211,697 209,697 207,696 205,695 203,694 202,693 200,693 198,692 196,692 194,691 192,691 190,690 188,690 186,689 184,689 182,689 180,689 178,688 176,688 174,688 172,688 171,688 " />
<polyline fill="none" vector-effect="non-scaling-stroke" points="146,984 147,986 148,987 150,989 151,990 152,992 154,993 155,995 156,996 158,998 159,999 160,1001 162,1002 163,1004 164,1005 166,1007 167,1008 168,1010 170,1011 171,1013 173,1014 174,1015 175,1017 177,1018 178,1020 180,1021 181,1023 182,1024 184,1025 185,1027 187,1028 188,1030 190,1031 191,1032 193,1034 194,1035 196,1036 197,1038 198,1039 200,1040 201,1042 203,1043 204,1044 206,1046 207,1047 209,1048 210,1050 212,1051 213,1052 215,1054 216,1054 " />
<polyline fill="none" vector-effect="non-scaling-stroke" points="150,925 234,841 " />
<polyline fill="none" vector-effect="non-scaling-stroke" points="275,1050 359,966 " />
<polyline fill="none" vector-effect="non-scaling-stroke" points="512,1148 512,1150 512,1152 512,1154 512,1156 513,1158 513,1160 513,1162 514,1164 515,1166 515,1168 516,1170 517,1171 518,1173 519,1175 521,1176 522,1178 523,1179 524,1181 526,1182 527,1184 529,1185 531,1186 532,1187 534,1188 536,1189 538,1190 540,1191 541,1191 543,1192 545,1192 547,1193 549,1193 551,1193 " />
<polyline fill="none" vector-effect="non-scaling-stroke" points="649,1193 651,1193 653,1192 655,1192 657,1192 659,1191 661,1190 663,1190 665,1189 666,1188 668,1187 670,1186 671,1184 673,1183 675,1182 676,1180 677,1179 679,1177 680,1176 681,1174 682,1173 683,1171 684,1169 685,1167 686,1165 686,1163 687,1162 687,1160 688,1158 688,1156 688,1154 688,1152 688,1150 688,1148 " />
<polyline fill="none" vector-effect="non-scaling-stroke" points="512,1029 512,1027 512,1025 512,1023 512,1021 511,1019 511,1017 511,1015 511,1013 510,1011 510,1009 509,1007 509,1005 508,1004 508,1002 507,1000 506,998 506,996 505,994 504,992 503,990 502,989 501,987 500,985 499,983 498,982 497,980 496,978 495,977 494,975 493,974 491,972 490,970 489,969 487,968 486,966 485,965 483,963 482,962 480,961 479,959 477,958 475,957 474,956 472,955 470,954 469,952 467,951 465,950 464,950 462,949 460,948 458,947 456,946 454,945 453,945 451,944 449,943 447,943 445,942 443,942 441,941 439,941 437,941 435,940 433,940 431,940 429,940 427,940 425,940 423,939 421,939 419,940 417,940 415,940 413,940 411,940 409,940 407,941 405,941 403,941 401,942 399,942 397,943 396,944 394,944 392,945 390,945 388,946 386,947 384,948 383,949 381,950 379,951 377,952 376,953 374,954 372,955 371,956 369,957 367,958 366,959 364,961 363,962 361,963 360,965 359,966 " />
<polyline fill="none" vector-effect="non-scaling-stroke" points="551,1193 553,1193 555,1193 557,1193 559,1194 561,1194 563,1194 565,1194 567,1194 569,1194 571,1194 573,1194 575,1194 577,1195 579,1195 581,1195 583,1195 585,1195 587,1195 589,1195 591,1195 593,1195 595,1195 597,1195 599,1195 601,1195 603,1195 605,1195 607,1195 609,1195 611,1195 613,1195 615,1195 617,1195 619,1195 621,1195 623,1195 625,1194 627,1194 629,1194 631,1194 633,1194 635,1194 637,1194 639,1194 641,1194 643,1193 645,1193 646,1193 648,1193 649,1193 " />
<polyline fill="none" vector-effect="non-scaling-stroke" points="512,1148 512,1029 " />
<polyline fill="none" vector-effect="non-scaling-stroke" points="688,1148 688,1029 " />
<polyline fill="none" vector-effect="non-scaling-stroke" points="926,1050 927,1051 928,1053 930,1054 931,1055 933,1057 935,1058 936,1059 938,1060 940,1061 942,1061 944,1062 946,1063 947,1063 949,1063 951,1064 953,1064 955,1064 957,1064 959,1064 961,1064 963,1064 965,1063 967,1063 969,1062 971,1062 973,1061 975,1060 977,1059 978,1058 980,1057 982,1056 983,1055 984,1054 " />
<polyline fill="none" vector-effect="non-scaling-stroke" points="1054,984 1055,983 1057,981 1058,980 1059,978 1060,976 1061,974 1061,972 1062,970 1063,969 1063,967 1063,965 1064,963 1064,961 1064,959 1064,957 1064,955 1064,953 1064,951 1063,949 1063,947 1062,945 1062,943 1061,941 1060,939 1059,938 1058,936 1057,934 1056,932 1055,931 1054,929 1052,928 1051,926 1050,926 " />
<polyline fill="none" vector-effect="non-scaling-stroke" points="841,966 840,964 838,963 837,962 835,960 834,959 832,958 831,957 829,955 827,954 826,953 824,952 822,951 820,950 819,949 817,948 815,948 813,947 811,946 810,945 808,945 806,944 804,943 802,943 800,942 798,942 796,941 794,941 792,941 790,940 788,940 786,940 784,940 782,940 780,940 778,939 776,939 774,940 772,940 770,940 768,940 766,940 764,940 762,941 760,941 758,942 756,942 755,943 753,943 751,944 749,944 747,945 745,946 743,946 741,947 740,948 738,949 736,950 734,951 732,952 731,953 729,954 727,955 726,956 724,957 723,959 721,960 719,961 718,962 716,964 715,965 714,967 712,968 711,969 710,971 708,972 707,974 706,976 705,977 703,979 702,981 701,982 700,984 699,986 698,987 697,989 697,991 696,993 695,995 694,997 693,998 693,1000 692,1002 692,1004 691,1006 691,1008 690,1010 690,1012 689,1014 689,1016 689,1018 689,1020 688,1022 688,1024 688,1026 688,1028 688,1029 " />
<polyline fill="none" vector-effect="non-scaling-stroke" points="984,1054 986,1053 987,1052 989,1050 990,1049 992,1048 993,1046 995,1045 996,1044 998,1042 999,1041 1001,1040 1002,1038 1004,1037 1005,1036 1007,1034 1008,1033 1010,1032 1011,1030 1013,1029 1014,1027 1015,1026 1017,1025 1018,1023 1020,1022 1021,1020 1023,1019 1024,1018 1025,1016 1027,1015 1028,1013 1030,1012 1031,1010 1032,1009 1034,1007 1035,1006 1036,1004 1038,1003 1039,1002 1040,1000 1042,999 1043,997 1044,996 1046,994 1047,993 1048,991 1050,990 1051,988 1052,987 1054,985 1054,984 " />
<polyline fill="none" vector-effect="non-scaling-stroke" points="925,1050 841,966 " />
<polyline fill="none" vector-effect="non-scaling-stroke" points="1050,925 966,841 " />
<polyline fill="none" vector-effect="non-scaling-stroke" points="1148,688 1150,688 1152,688 1154,688 1156,688 1158,687 1160,687 1162,687 1164,686 1166,685 1168,685 1170,684 1171,683 1173,682 1175,681 1176,679 1178,678 1179,677 1181,676 1182,674 1184,673 1185,671 1186,669 1187,668 1188,666 1189,664 1190,662 1191,660 1191,659 1192,657 1192,655 1193,653 1193,651 1193,649 " />
<polyline fill="none" vector-effect="non-scaling-stroke" points="1193,551 1193,549 1192,547 1192,545 1192,543 1191,541 1190,539 1190,537 1189,535 1188,534 1187,532 1186,530 1184,529 1183,527 1182,525 1180,524 1179,523 1177,521 1176,520 1174,519 1173,518 1171,517 1169,516 1167,515 1165,514 1163,514 1162,513 1160,513 1158,512 1156,512 1154,512 1152,512 1150,512 1148,512 " />
<polyline fill="none" vector-effect="non-scaling-stroke" points="1029,688 1027,688 1025,688 1023,688 1021,688 1019,689 1017,689 1015,689 1013,689 1011,690 1009,690 1007,691 1005,691 1004,692 1002,692 1000,693 998,694 996,694 994,695 992,696 990,697 989,698 987,699 985,700 983,701 982,702 980,703 978,704 977,705 975,706 974,707 972,709 970,710 969,711 968,713 966,714 965,715 963,717 962,718 961,720 959,721 958,723 957,725 956,726 955,728 954,730 952,731 951,733 950,735 950,736 949,738 948,740 947,742 946,744 945,746 945,747 944,749 943,751 943,753 942,755 942,757 941,759 941,761 941,763 940,765 940,767 940,769 940,771 940,773 940,775 939,777 939,779 940,781 940,783 940,785 940,787 940,789 940,791 941,793 941,795 941,797 942,799 942,801 943,803 944,804 944,806 945,808 945,810 946,812 947,814 948,816 949,817 950,819 951,821 952,823 953,824 954,826 955,828 956,829 957,831 958,833 959,834 961,836 962,837 963,839 965,840 966,841 " />
<polyline fill="none" vector-effect="non-scaling-stroke" points="1193,649 1193,647 1193,645 1193,643 1194,641 1194,639 1194,637 1194,635 1194,633 1194,631 1194,629 1194,627 1194,625 1195,623 1195,621 1195,619 1195,617 1195,615 1195,613 1195,611 1195,609 1195,607 1195,605 1195,603 1195,601 1195,599 1195,597 1195,595 1195,593 1195,591 1195,589 1195,587 1195,585 1195,583 1195,581 1195,579 1195,577 1194,575 1194,573 1194,571 1194,569 1194,567 1194,565 1194,563 1194,561 1194,559 1193,557 1193,555 1193,554 1193,552 1193,551 " />
<polyline fill="none" vector-effect="non-scaling-stroke" points="1148,688 1029,688 " />
<polyline fill="none" vector-effect="non-scaling-stroke" points="1148,512 1029,512 " />
<polyline fill="none" vector-effect="non-scaling-stroke" points="1050,274 1051,273 1053,272 1054,270 1055,269 1057,267 1058,265 1059,264 1060,262 1061,260 1061,258 1062,256 1063,254 1063,253 1063,251 1064,249 1064,247 1064,245 1064,243 1064,241 1064,239 1064,237 1063,235 1063,233 1062,231 1062,229 1061,227 1060,225 1059,223 1058,222 1057,220 1056,218 1055,217 1054,216 " />
<polyline fill="none" vector-effect="non-scaling-stroke" points="984,146 983,145 981,143 980,142 978,141 976,140 974,139 972,139 970,138 969,137 967,137 965,137 963,136 961,136 959,136 957,136 955,136 953,136 951,136 949,137 947,137 945,138 943,138 941,139 939,140 938,141 936,142 934,143 932,144 931,145 929,146 928,148 926,149 926,150 " />
<polyline fill="none" vector-effect="non-scaling-stroke" points="966,359 964,360 963,362 962,363 960,365 959,366 958,368 957,369 955,371 954,373 953,374 952,376 951,378 950,380 949,381 948,383 948,385 947,387 946,389 945,390 945,392 944,394 943,396 943,398 942,400 942,402 941,404 941,406 941,408 940,410 940,412 940,414 940,416 940,418 940,420 939,422 939,424 940,426 940,428 940,430 940,432 940,434 940,436 941,438 941,440 942,442 942,444 943,445 943,447 944,449 944,451 945,453 946,455 946,457 947,459 948,460 949,462 950,464 951,466 952,468 953,469 954,471 955,473 956,474 957,476 959,477 960,479 961,481 962,482 964,484 965,485 967,486 968,488 969,489 971,490 972,492 974,493 976,494 977,495 979,497 981,498 982,499 984,500 986,501 987,502 989,503 991,503 993,504 995,505 997,506 998,507 1000,507 1002,508 1004,508 1006,509 1008,509 1010,510 1012,510 1014,511 1016,511 1018,511 1020,511 1022,512 1024,512 1026,512 1028,512 1029,512 " />
<polyline fill="none" vector-effect="non-scaling-stroke" points="1054,216 1053,214 1052,213 1050,211 1049,210 1048,208 1046,207 1045,205 1044,204 1042,202 1041,201 1040,199 1038,198 1037,196 1036,195 1034,193 1033,192 1032,190 1030,189 1029,187 1027,186 1026,185 1025,183 1023,182 1022,180 1020,179 1019,177 1018,176 1016,175 1015,173 1013,172 1012,170 1010,169 1009,168 1007,166 1006,165 1004,164 1003,162 1002,161 1000,160 999,158 997,157 996,156 994,154 993,153 991,152 990,150 988,149 987,148 985,146 984,146 " />
<polyline fill="none" vector-effect="non-scaling-stroke" points="1050,275 966,359 " />
<polyline fill="none" vector-effect="non-scaling-stroke" points="925,150 841,234 " />
<polyline fill="none" vector-effect="non-scaling-stroke" points="688,52 688,50 688,48 688,46 688,44 687,42 687,40 687,38 686,36 685,34 685,32 684,30 683,29 682,27 681,25 679,24 678,22 677,21 676,19 674,18 673,16 671,15 669,14 668,13 666,12 664,11 662,10 660,9 659,9 657,8 655,8 653,7 651,7 649,7 " />
<polyline fill="none" vector-effect="non-scaling-stroke" points="551,7 549,7 547,8 545,8 543,8 541,9 539,10 537,10 535,11 534,12 532,13 530,14 529,16 527,17 525,18 524,20 523,21 521,23 520,24 519,26 518,27 517,29 516,31 515,33 514,35 514,37 513,38 513,40 512,42 512,44 512,46 512,48 512,50 512,52 " />
<polyline fill="none" vector-effect="non-scaling-stroke" points="688,171 688,173 688,175 688,177 688,179 689,181 689,183 689,185 689,187 690,189 690,191 691,193 691,195 692,196 692,198 693,200 694,202 694,204 695,206 696,208 697,210 698,211 699,213 700,215 701,217 702,218 703,220 704,222 705,223 706,225 707,226 709,228 710,230 711,231 713,232 714,234 715,235 717,237 718,238 720,239 721,241 723,242 725,243 726,244 728,245 730,246 731,248 733,249 735,250 736,250 738,251 740,252 742,253 744,254 746,255 747,255 749,256 751,257 753,257 755,258 757,258 759,259 761,259 763,259 765,260 767,260 769,260 771,260 773,260 775,260 777,261 779,261 781,260 783,260 785,260 787,260 789,260 791,260 793,259 795,259 797,259 799,258 801,258 803,257 804,256 806,256 808,255 810,255 812,254 814,253 816,252 817,251 819,250 821,249 823,248 824,247 826,246 828,245 829,244 831,243 833,242 834,241 836,239 837,238 839,237 840,235 841,234 " />
<polyline fill="none" vector-effect="non-scaling-stroke" points="649,7 647,7 645,7 643,7 641,6 639,6 637,6 635,6 633,6 631,6 629,6 627,6 625,6 623,5 621,5 619,5 617,5 615,5 613,5 611,5 609,5 607,5 605,5 603,5 601,5 599,5 597,5 595,5 593,5 591,5 589,5 587,5 585,5 583,5 581,5 579,5 577,5 575,6 573,6 571,6 569,6 567,6 565,6 563,6 561,6 559,6 557,7 555,7 554,7 552,7 551,7 " />
<polyline fill="none" vector-effect="non-scaling-stroke" points="688,52 688,171 " />
<polyline fill="none" vector-effect="non-scaling-stroke" points="512,52 512,171 " />
<polyline fill="none" vector-effect="non-scaling-stroke" points="274,150 273,149 272,147 270,146 269,145 267,143 265,142 264,141 262,140 260,139 258,139 256,138 254,137 253,137 251,137 249,136 247,136 245,136 243,136 241,136 239,136 237,136 235,137 233,137 231,138 229,138 227,139 225,140 223,141 222,142 220,143 218,144 217,145 216,146 " />
<polyline fill="none" vector-effect="non-scaling-stroke" points="146,216 145,217 143,219 142,220 141,222 140,224 139,226 139,228 138,230 137,231 137,233 137,235 136,237 136,239 136,241 136,243 136,245 136,247 136,249 137,251 137,253 138,255 138,257 139,259 140,261 141,262 142,264 143,266 144,268 145,269 146,271 148,272 149,274 150,274 " />
<polyline fill="none" vector-effect="non-scaling-stroke" points="359,234 360,236 362,237 363,238 365,240 366,241 368,242 369,243 371,245 373,246 374,247 376,248 378,249 380,250 381,251 383,252 385,252 387,253 389,254 390,255 392,255 394,256 396,257 398,257 400,258 402,258 404,259 406,259 408,259 410,260 412,260 414,260 416,260 418,260 420,260 422,261 424,261 426,260 428,260 430,260 432,260 434,260 436,260 438,259 440,259 442,258 444,258 445,257 447,257 449,256 451,256 453,255 455,254 457,254 459,253 460,252 462,251 464,250 466,249 468,248 469,247 471,246 473,245 474,244 476,243 477,241 479,240 481,239 482,238 484,236 485,235 486,233 488,232 489,231 490,229 492,228 493,226 494,224 495,223 497,221 498,219 499,218 500,216 501,214 502,213 503,211 503,209 504,207 505,205 506,203 507,202 507,200 508,198 508,196 509,194 509,192 510,190 510,188 511,186 511,184 511,182 511,180 512,178 512,176 512,174 512,172 512,171 " />
<polyline fill="none" vector-effect="non-scaling-stroke" points="216,146 214,147 213,148 211,150 210,151 208,152 207,154 205,155 204,156 202,158 201,159 199,160 198,162 196,163 195,164 193,166 192,167 190,168 189,170 187,171 186,173 185,174 183,175 182,177 180,178 179,180 177,181 176,182 175,184 173,185 172,187 170,188 169,190 168,191 166,193 165,194 164,196 162,197 161,198 160,200 158,201 157,203 156,204 154,206 153,207 152,209 150,210 149,212 148,213 146,215 146,216 " />
<polyline fill="none" vector-effect="non-scaling-stroke" points="275,150 359,234 " />
<polyline fill="none" vector-effect="non-scaling-stroke" points="150,275 234,359 " />
<polyline fill="none" vector-effect="non-scaling-stroke" points="52,512 50,512 48,512 46,512 44,512 42,513 40,513 38,513 36,514 34,515 32,515 30,516 29,517 27,518 25,519 24,521 22,522 21,523 19,524 18,526 16,527 15,529 14,531 13,532 12,534 11,536 10,538 9,540 9,541 8,543 8,545 7,547 7,549 7,551 " />
<polyline fill="none" vector-effect="non-scaling-stroke" points="7,649 7,651 8,653 8,655 8,657 9,659 10,661 10,663 11,665 12,666 13,668 14,670 16,671 17,673 18,675 20,676 21,677 23,679 24,680 26,681 27,682 29,683 31,684 33,685 35,686 37,686 38,687 40,687 42,688 44,688 46,688 48,688 50,688 52,688 " />
<polyline fill="none" vector-effect="non-scaling-stroke" points="7,551 7,553 7,555 7,557 6,559 6,561 6,563 6,565 6,567 6,569 6,571 6,573 6,575 5,577 5,579 5,581 5,583 5,585 5,587 5,589 5,591 5,593 5,595 5,597 5,599 5,601 5,603 5,605 5,607 5,609 5,611 5,613 5,615 5,617 5,619 5,621 5,623 6,625 6,627 6,629 6,631 6,633 6,635 6,637 6,639 6,641 7,643 7,645 7,646 7,648 7,649 " />
<polyline fill="none" vector-effect="non-scaling-stroke" points="52,512 171,512 " />
<polyline fill="none" vector-effect="non-scaling-stroke" points="52,688 171,688 " />
<polyline fill="none" vector-effect="non-scaling-stroke" points="624,600 624,598 623,596 623,594 622,592 622,590 621,589 620,587 619,585 617,584 616,582 614,581 613,580 611,579 609,578 607,577 605,577 603,576 601,576 599,576 597,576 595,577 593,577 592,578 590,579 588,579 586,581 585,582 583,583 582,585 581,586 580,588 579,590 578,591 577,593 577,595 576,597 576,599 576,601 576,603 577,605 577,607 578,609 579,611 580,613 581,614 582,616 584,617 585,619 587,620 588,621 590,622 592,622 594,623 596,623 598,624 600,624 602,624 604,623 606,623 608,623 610,622 611,621 613,620 615,619 616,617 618,616 619,614 620,613 621,611 622,609 623,607 623,605 624,604 624,602 624,600 " />
<polyline fill="none" vector-effect="non-scaling-stroke" points="609,548 608,546 608,545 607,543 605,542 604,540 602,540 600,540 598,540 596,541 594,542 593,543 592,545 591,547 591,549 592,551 592,553 594,554 595,556 597,557 599,557 601,557 603,557 605,556 606,555 607,553 608,551 609,549 609,548 " />
<polyline fill="none" vector-effect="non-scaling-stroke" points="557,600 557,598 556,596 555,594 554,593 552,592 550,591 548,591 546,592 544,592 543,593 541,595 540,597 540,599 540,601 540,603 541,604 542,606 544,607 545,608 547,609 549,609 551,608 553,607 555,606 556,605 557,603 557,601 557,600 " />
<polyline fill="none" vector-effect="non-scaling-stroke" points="609,652 608,650 608,648 607,646 605,645 604,644 602,643 600,643 598,643 596,644 594,645 593,646 592,648 591,650 591,652 592,654 592,656 594,658 595,659 597,660 599,660 601,660 603,660 605,659 606,658 607,656 608,654 609,652 " />
<polyline fill="none" vector-effect="non-scaling-stroke" points="660,600 660,598 659,596 658,594 657,593 655,592 653,591 651,591 649,592 647,592 646,593 644,595 643,597 643,599 643,601 643,603 644,604 645,606 647,607 649,608 650,609 652,609 654,608 656,607 658,606 659,605 660,603 660,601 660,600 " />
<polyline fill="none" vector-effect="non-scaling-stroke" points="609,548 608,546 608,545 607,543 605,542 604,540 602,540 600,540 598,540 596,541 594,542 593,543 592,545 591,547 591,549 592,551 592,553 594,554 595,556 597,557 599,557 601,557 603,557 605,556 606,555 607,553 608,551 609,549 609,548 " />
</g>
</g>
</svg>
