<svg width="800" height="600" xmlns="http://www.w3.org/2000/svg">
 <title>spring</title>
 <g id="Layer_1">
  <title>Layer 1</title>
  <line stroke-width="3" id="svg_1" y2="365" x2="553.01316" y1="365" x1="211" stroke="#ffffff" fill="none"/>
  <line stroke-width="3" id="svg_2" y2="365" x2="212" y1="165" x1="212" stroke="#ffffff" fill="none"/>
  <rect id="svg_3" height="48" width="51" y="174" x="382" stroke="#FFFFFF" fill="#FFFFFF"/>
  <line id="svg_4" y2="198" x2="223" y1="198" x1="212" stroke="#ffffff" fill="none"/>
  <line id="svg_5" y2="183" x2="231" y1="198" x1="223" stroke="#ffffff" fill="none"/>
  <line id="svg_6" y2="208" x2="242" y1="183" x1="231" stroke="#ffffff" fill="none"/>
  <line id="svg_7" y2="208" x2="242" y1="183" x1="253" stroke="#ffffff" fill="none"/>
  <line id="svg_8" y2="208" x2="264" y1="183" x1="253" stroke="#ffffff" fill="none"/>
  <line id="svg_9" y2="208" x2="264" y1="183" x1="275" stroke="#ffffff" fill="none"/>
  <line id="svg_10" y2="208" x2="286" y1="183" x1="275" stroke="#ffffff" fill="none"/>
  <line id="svg_11" y2="208" x2="286" y1="183" x1="297" stroke="#ffffff" fill="none"/>
  <line id="svg_17" y2="208" x2="308" y1="183" x1="297" stroke="#ffffff" fill="none"/>
  <line id="svg_18" y2="208" x2="308" y1="183" x1="319" stroke="#ffffff" fill="none"/>
  <line id="svg_19" y2="208" x2="330" y1="183" x1="319" stroke="#ffffff" fill="none"/>
  <line id="svg_20" y2="208" x2="330" y1="183" x1="341" stroke="#ffffff" fill="none"/>
  <line id="svg_21" y2="208" x2="352" y1="183" x1="341" stroke="#ffffff" fill="none"/>
  <line id="svg_22" y2="208" x2="352" y1="183" x1="363" stroke="#ffffff" fill="none"/>
  <line id="svg_23" y2="183" x2="363" y1="198" x1="371" stroke="#ffffff" fill="none"/>
  <line id="svg_25" y2="198" x2="382" y1="198" x1="371" stroke="#ffffff" fill="none"/>
  <path opacity="0.5" stroke="#444444" id="svg_65" d="m425.95083,272.93872l3.17097,-3.24545l-6.13091,0l-6.1309,0l0,-2.00909l0,-2.00909l6.06057,0c3.33331,0 6.06056,-0.10183 6.06056,-0.22629c0,-0.12446 -1.32698,-1.58491 -2.94884,-3.24545l-2.94885,-3.01917l2.72564,0l2.72563,0l4.16265,4.25407l4.16265,4.25407l-4.17063,4.24593l-4.17063,4.24593l-2.86943,0l-2.86944,0l3.17098,-3.24546l0,0z" fill="none"/>
  <path opacity="0.5" stroke="#444444" id="svg_66" d="m390.3637,272.93872l-3.01242,-3.24546l5.82437,0l5.82436,0l0,-2.00909l0,-2.00909l-5.75753,0c-3.16664,0 -5.75754,-0.10183 -5.75754,-0.22629c0,-0.12445 1.26063,-1.58491 2.8014,-3.24545l2.80141,-3.01917l-2.58936,0l-2.58934,0l-3.95452,4.25407l-3.95452,4.25407l3.9621,4.24593l3.9621,4.24593l2.72597,0l2.72597,0l-3.01243,-3.24545l0,0z" fill="none"/>
  <line opacity="0.25" id="svg_67" y2="198" x2="408" y1="190" x1="408" stroke="#444444" fill="none"/>
  <line opacity="0.25" id="svg_68" y2="209" x2="408" y1="201" x1="408" stroke="#444444" fill="none"/>
  <line opacity="0.25" id="svg_69" y2="220" x2="408" y1="212" x1="408" stroke="#444444" fill="none"/>
  <line opacity="0.25" id="svg_70" y2="231" x2="408" y1="223" x1="408" stroke="#444444" fill="none"/>
  <line opacity="0.25" id="svg_71" y2="242" x2="408" y1="234" x1="408" stroke="#444444" fill="none"/>
  <line opacity="0.25" id="svg_72" y2="253" x2="408" y1="245" x1="408" stroke="#444444" fill="none"/>
  <line opacity="0.25" id="svg_73" y2="264" x2="408" y1="256" x1="408" stroke="#444444" fill="none"/>
  <line opacity="0.25" id="svg_74" y2="275" x2="408" y1="267" x1="408" stroke="#444444" fill="none"/>
  <line opacity="0.25" id="svg_75" y2="286" x2="408" y1="278" x1="408" stroke="#444444" fill="none"/>
  <line opacity="0.25" id="svg_76" y2="297" x2="408" y1="289" x1="408" stroke="#444444" fill="none"/>
  <line opacity="0.25" id="svg_77" y2="308" x2="408" y1="300" x1="408" stroke="#444444" fill="none"/>
  <line opacity="0.25" id="svg_78" y2="319" x2="408" y1="311" x1="408" stroke="#444444" fill="none"/>
  <line opacity="0.25" id="svg_79" y2="330" x2="408" y1="322" x1="408" stroke="#444444" fill="none"/>
  <line opacity="0.25" id="svg_80" y2="341" x2="408" y1="333" x1="408" stroke="#444444" fill="none"/>
  <line opacity="0.25" id="svg_81" y2="352" x2="408" y1="344" x1="408" stroke="#444444" fill="none"/>
  <line opacity="0.25" id="svg_82" y2="363" x2="408" y1="355" x1="408" stroke="#444444" fill="none"/>
  <line opacity="0.25" id="svg_86" y2="175" x2="408" y1="167" x1="408" stroke="#444444" fill="none"/>
  <line opacity="0.25" id="svg_87" y2="186" x2="408" y1="178" x1="408" stroke="#444444" fill="none"/>
  <rect opacity="0.25" id="svg_46" height="48" width="51" y="314" x="465" stroke="#444444" fill="#444444"/>
  <g opacity="0.25" stroke="null" id="svg_64">
   <line stroke="#444444" id="svg_47" y2="338" x2="228.30588" y1="338" x1="212" fill="none"/>
   <line stroke="#444444" id="svg_48" y2="323" x2="240.16471" y1="338" x1="228.30588" fill="none"/>
   <line stroke="#444444" id="svg_49" y2="348" x2="256.47059" y1="323" x1="240.16471" fill="none"/>
   <line stroke="#444444" id="svg_50" y2="348" x2="256.47059" y1="323" x1="272.77647" fill="none"/>
   <line stroke="#444444" id="svg_51" y2="348" x2="289.08235" y1="323" x1="272.77647" fill="none"/>
   <line stroke="#444444" id="svg_52" y2="348" x2="289.08235" y1="323" x1="305.38824" fill="none"/>
   <line stroke="#444444" id="svg_53" y2="348" x2="321.69412" y1="323" x1="305.38824" fill="none"/>
   <line stroke="#444444" id="svg_54" y2="348" x2="321.69412" y1="323" x1="338" fill="none"/>
   <line stroke="#444444" id="svg_55" y2="348" x2="354.30589" y1="323" x1="338" fill="none"/>
   <line stroke="#444444" id="svg_56" y2="348" x2="354.30589" y1="323" x1="370.61177" fill="none"/>
   <line stroke="#444444" id="svg_57" y2="348" x2="386.91765" y1="323" x1="370.61177" fill="none"/>
   <line stroke="#444444" id="svg_58" y2="348" x2="386.91765" y1="323" x1="403.22353" fill="none"/>
   <line stroke="#444444" id="svg_59" y2="348" x2="419.52942" y1="323" x1="403.22353" fill="none"/>
   <line stroke="#444444" id="svg_60" y2="348" x2="419.52942" y1="323" x1="435.8353" fill="none"/>
   <line stroke="#444444" id="svg_61" y2="323" x2="435.8353" y1="338" x1="447.69412" fill="none"/>
   <line stroke="#444444" id="svg_62" y2="338" x2="464.00001" y1="338" x1="447.69412" fill="none"/>
  </g>
  <rect opacity="0.25" stroke="#444444" id="svg_26" height="48" width="51" y="243" x="292" fill="#444444"/>
  <g opacity="0.25" stroke="null" id="svg_44">
   <line stroke="#444444" id="svg_27" y2="267" x2="217.11176" y1="267" x1="212" fill="none"/>
   <line stroke="#444444" id="svg_28" y2="252" x2="220.82941" y1="267" x1="217.11176" fill="none"/>
   <line stroke="#444444" id="svg_29" y2="277" x2="225.94118" y1="252" x1="220.82941" fill="none"/>
   <line stroke="#444444" id="svg_30" y2="277" x2="225.94118" y1="252" x1="231.05294" fill="none"/>
   <line stroke="#444444" id="svg_31" y2="277" x2="236.16471" y1="252" x1="231.05294" fill="none"/>
   <line stroke="#444444" id="svg_32" y2="277" x2="236.16471" y1="252" x1="241.27647" fill="none"/>
   <line stroke="#444444" id="svg_33" y2="277" x2="246.38824" y1="252" x1="241.27647" fill="none"/>
   <line stroke="#444444" id="svg_34" y2="277" x2="246.38824" y1="252" x1="251.5" fill="none"/>
   <line stroke="#444444" id="svg_35" y2="277" x2="256.61177" y1="252" x1="251.5" fill="none"/>
   <line stroke="#444444" id="svg_36" y2="277" x2="256.61177" y1="252" x1="261.72353" fill="none"/>
   <line stroke="#444444" id="svg_37" y2="277" x2="266.83529" y1="252" x1="261.72353" fill="none"/>
   <line stroke="#444444" id="svg_38" y2="277" x2="266.83529" y1="252" x1="271.94706" fill="none"/>
   <line stroke="#444444" id="svg_39" y2="277" x2="277.05882" y1="252" x1="271.94706" fill="none"/>
   <line stroke="#444444" id="svg_40" y2="277" x2="277.05882" y1="252" x1="282.17059" fill="none"/>
   <line stroke="#444444" id="svg_41" y2="252" x2="282.17059" y1="267" x1="285.88824" fill="none"/>
   <line stroke="#444444" id="svg_42" y2="267" x2="291" y1="267" x1="285.88824" fill="none"/>
  </g>
 </g>
</svg>